<?xml version="1.0" encoding="UTF-8" standalone="no"?>
<!-- Created with Inkscape (http://www.inkscape.org/) -->
<svg xmlns:dc="http://purl.org/dc/elements/1.1/" xmlns:cc="http://creativecommons.org/ns#" xmlns:rdf="http://www.w3.org/1999/02/22-rdf-syntax-ns#" xmlns:svg="http://www.w3.org/2000/svg" xmlns="http://www.w3.org/2000/svg" xmlns:sodipodi="http://sodipodi.sourceforge.net/DTD/sodipodi-0.dtd" xmlns:inkscape="http://www.inkscape.org/namespaces/inkscape" version="1.0" width="506.69568" height="498.9729" id="svg6188" sodipodi:version="0.32" inkscape:version="0.48.2 r9819" sodipodi:docname="Licorne saillante (cabrée).svg" inkscape:output_extension="org.inkscape.output.svg.inkscape"><script xmlns=""/>
  <metadata id="metadata34">
    <rdf:RDF>
      <cc:Work rdf:about="">
        <dc:format>image/svg+xml</dc:format>
        <dc:type rdf:resource="http://purl.org/dc/dcmitype/StillImage"/>
      </cc:Work>
    </rdf:RDF>
  </metadata>
  <sodipodi:namedview inkscape:window-height="850" inkscape:window-width="1600" inkscape:pageshadow="2" inkscape:pageopacity="0.0" guidetolerance="10.0" gridtolerance="10.0" objecttolerance="10.0" borderopacity="1.0" bordercolor="#666666" pagecolor="#ffffff" id="base" inkscape:zoom="0.79787589" inkscape:cx="403.04697" inkscape:cy="233.00083" inkscape:window-x="-8" inkscape:window-y="-8" inkscape:current-layer="svg6188" showgrid="false" fit-margin-top="0" fit-margin-left="0" fit-margin-right="0" fit-margin-bottom="0" inkscape:window-maximized="1"/>
  <defs id="defs6190"/>
  <path style="fill:#ffffff;fill-opacity:1;fill-rule:evenodd;stroke:#000000;stroke-width:2.5;stroke-linecap:butt;stroke-linejoin:miter;stroke-miterlimit:4;stroke-opacity:1;stroke-dasharray:none" d="m 115.34677,149.81286 c 0.0923,8.86397 5.64187,12.21612 11.7213,14.90135 11.0517,4.88143 9.03287,7.91057 12.27508,14.44857 1.28658,-7.30789 6.24381,-16.51105 -0.67201,-21.16337 -15.7317,-10.58283 -3.07545,-12.46363 -12.4753,-17.51869 l -10.84907,9.33214 z" id="path14385" sodipodi:nodetypes="cscscc" inkscape:transform-center-x="16.028252" inkscape:connector-curvature="0"/>
  <g id="g2633" transform="translate(7.9560544,29.903773)" style="fill:#ffffff;fill-opacity:1;stroke:#000000;stroke-width:2.5;stroke-miterlimit:4;stroke-opacity:1;stroke-dasharray:none">
    <g id="g2617" style="fill:#ffffff;fill-opacity:1;stroke:#000000;stroke-width:2.5;stroke-miterlimit:4;stroke-opacity:1;stroke-dasharray:none">
      <g id="g6133" transform="translate(-121.34371,-150.00859)" style="fill:#ffffff;fill-opacity:1;stroke:#000000;stroke-width:2.5;stroke-miterlimit:4;stroke-opacity:1;stroke-dasharray:none">
        <path d="m 122.34371,396.35565 3.25494,8.83484 35.80434,-12.55477 -3.95242,-8.13735" style="color:#000000;fill:#ffffff;fill-opacity:1;fill-rule:evenodd;stroke:#000000;stroke-width:2.5;stroke-linecap:butt;stroke-linejoin:miter;stroke-miterlimit:4;stroke-opacity:1;stroke-dasharray:none;stroke-dashoffset:0;marker:none;visibility:visible;display:inline;overflow:visible;enable-background:accumulate" id="path5123" inkscape:connector-curvature="0"/>
        <path d="m 132.05756,370.91727 c -2.38308,6.21926 -6.9614,16.73802 -9.53232,24.87705 9.85299,-0.9007 27.89948,-9.59045 37.19931,-12.78727" style="color:#000000;fill:#ffffff;fill-opacity:1;fill-rule:evenodd;stroke:#000000;stroke-width:2.5;stroke-linecap:butt;stroke-linejoin:miter;stroke-miterlimit:4;stroke-opacity:1;stroke-dasharray:none;stroke-dashoffset:0;marker:none;visibility:visible;display:inline;overflow:visible;enable-background:accumulate" id="path5121" inkscape:connector-curvature="0"/>
      </g>
      <g id="g6145" transform="translate(-121.34371,-150.00859)" style="fill:#ffffff;fill-opacity:1;stroke:#000000;stroke-width:2.5;stroke-miterlimit:4;stroke-opacity:1;stroke-dasharray:none">
        <path d="m 411.2849,604.57545 0,7.20737 39.75677,0 0.46499,-6.50988" style="color:#000000;fill:#ffffff;fill-opacity:1;fill-rule:evenodd;stroke:#000000;stroke-width:2.5;stroke-linecap:butt;stroke-linejoin:miter;stroke-miterlimit:4;stroke-opacity:1;stroke-dasharray:none;stroke-dashoffset:0;marker:none;visibility:visible;display:inline;overflow:visible;enable-background:accumulate" id="path5139" inkscape:connector-curvature="0"/>
        <path d="m 428.95458,582.95335 c -4.3593,5.46365 -13.83349,12.90351 -17.43718,21.8546 9.00541,-0.43024 31.64541,-0.13454 40.22175,0 -1.68166,-3.35592 -2.26683,-5.57989 -3.02244,-7.43986" style="color:#000000;fill:#ffffff;fill-opacity:1;fill-rule:evenodd;stroke:#000000;stroke-width:2.5;stroke-linecap:butt;stroke-linejoin:miter;stroke-miterlimit:4;stroke-opacity:1;stroke-dasharray:none;stroke-dashoffset:0;marker:none;visibility:visible;display:inline;overflow:visible;enable-background:accumulate" id="path5137" inkscape:connector-curvature="0"/>
      </g>
    </g>
    <path id="path5155" style="color:#000000;fill:#ffffff;fill-opacity:1;fill-rule:evenodd;stroke:#000000;stroke-width:2.5;stroke-linecap:butt;stroke-linejoin:miter;stroke-miterlimit:4;stroke-opacity:1;stroke-dasharray:none;stroke-dashoffset:0;marker:none;visibility:visible;display:inline;overflow:visible;enable-background:accumulate" d="m 115.47387,94.5364 c -4.06601,4.28579 -8.70895,9.89029 -17.14317,15.3849 2.4451,4.50558 3.59897,4.61547 5.71439,6.15396" inkscape:connector-curvature="0"/>
    <g id="g2600" style="fill:#ffffff;fill-opacity:1;stroke:#000000;stroke-width:2.5;stroke-miterlimit:4;stroke-opacity:1;stroke-dasharray:none">
      <path d="m 141.55541,18.4567 c -5.78274,-4.07813 -17.83311,-7.07921 -22.78574,-10.09822 -1.39113,1.24966 -2.78348,4.22916 11.30656,12.94643" style="color:#000000;fill:#ffffff;fill-opacity:1;fill-rule:evenodd;stroke:#000000;stroke-width:2.5;stroke-linecap:butt;stroke-linejoin:miter;stroke-miterlimit:4;stroke-opacity:1;stroke-dasharray:none;stroke-dashoffset:0;marker:none;visibility:visible;display:inline;overflow:visible;enable-background:accumulate" id="path5119" inkscape:connector-curvature="0"/>
      <path d="m 111.52298,174.4959 c 0,0 -12.34864,-14.59142 -25.3765,-13.73316 -9.8646,0.64987 -45.99916,24.70693 -65.97889,39.40821 -3.07123,2.25984 -5.59776,14.25562 -10.1506,22.98812 9.77741,-0.52246 15.2259,1.71664 21.79393,5.97094 5.0753,-6.79194 5.40301,-8.27153 8.06077,-11.64333 -0.32536,-2.73474 -2.64926,-5.7577 -1.49273,-7.16513 1.684,-2.04934 6.92982,-1.72625 11.04624,-4.17966 11.09677,-6.61373 26.85096,-20.25252 34.93,-19.40556 8.81752,0.92438 13.12765,15.36176 19.30031,25.57324" style="color:#000000;fill:#ffffff;fill-opacity:1;fill-rule:evenodd;stroke:#000000;stroke-width:2.5;stroke-linecap:butt;stroke-linejoin:miter;stroke-miterlimit:4;stroke-opacity:1;stroke-dasharray:none;stroke-dashoffset:0;marker:none;visibility:visible;display:inline;overflow:visible;enable-background:accumulate" id="path3158" inkscape:connector-curvature="0"/>
      <path d="m 313.56166,301.47339 c 1.83195,6.41183 0.8208,17.40174 4.76307,25.28093 27.48272,17.02173 33.34152,24.63976 40.66933,43.60046 -7.04145,21.09368 -13.19005,28.02886 -21.98342,42.13489 -17.60792,9.31322 -23.17419,13.46484 -30.4104,21.61703 6.68662,3.02272 13.55644,7.14462 20.88425,14.28923 5.86225,-24.36496 16.12118,-8.51858 18.68591,-3.29752 5.86225,-4.67148 4.39669,-12.09088 6.22864,-18.31951 11.72449,-16.12118 36.27264,-50.56188 36.27264,-50.56188" style="color:#000000;fill:#ffffff;fill-opacity:1;fill-rule:evenodd;stroke:#000000;stroke-width:2.5;stroke-linecap:butt;stroke-linejoin:miter;stroke-miterlimit:4;stroke-opacity:1;stroke-dasharray:none;stroke-dashoffset:0;marker:none;visibility:visible;display:inline;overflow:visible;enable-background:accumulate" id="path5113" inkscape:connector-curvature="0"/>
    </g>
    <g id="g2606" style="fill:#ffffff;fill-opacity:1;stroke:#000000;stroke-width:2.5;stroke-miterlimit:4;stroke-opacity:1;stroke-dasharray:none">
      <path d="m 392.07146,237.32527 c 31.82527,20.05184 62.27569,83.5668 95.89201,51.32445 -12.54887,6.22864 -16.30437,3.02272 -24.91454,-0.73278 37.55501,-4.12189 22.8078,-34.89868 34.44069,-52.39382 -3.38911,-2.47313 -6.22864,-0.91598 -9.89254,1.46556 -4.03029,-22.8994 -20.42626,-28.85324 -25.28093,-50.56187 -3.38911,5.03787 -2.28994,2.10674 -4.39669,10.62532 -21.89183,-20.05987 -14.28923,-43.87525 -9.52615,-57.52329 -23.08259,7.96899 -23.90697,25.92212 -24.18176,54.22578 -7.96899,-10.90011 -7.05302,-20.33466 -5.12947,-32.97513 -31.41797,47.44755 27.20449,71.17132 28.94485,87.56729 -8.51858,16.76236 -42.50129,-10.25893 -61.91998,-21.61703" style="color:#000000;fill:#ffffff;fill-opacity:1;fill-rule:evenodd;stroke:#000000;stroke-width:2.5;stroke-linecap:butt;stroke-linejoin:miter;stroke-miterlimit:4;stroke-opacity:1;stroke-dasharray:none;stroke-dashoffset:0;marker:none;visibility:visible;display:inline;overflow:visible;enable-background:accumulate" id="path5115" sodipodi:nodetypes="cccccccccccc" inkscape:connector-curvature="0"/>
      <path sodipodi:nodetypes="ccccccccccccccc" d="M 234.64926,172.99348 C 250.77255,34.53023 178.01398,17.10783 121.53994,32.58191 c -7.1227,-2.92712 -1.59558,-1.24101 -9.21894,-7.09149 20.38804,-14.36027 52.83163,-9.1303 66.66004,-7.80064 0,2.39338 0.88644,-0.26593 0,4.2549 5.90618,-0.22178 10.34603,-0.2477 17.77125,2.11681 -0.73713,2.15231 -2.27237,2.41465 -4.8027,4.59884 12.95026,-3.56278 38.99962,25.30066 47.93137,33.90972 -5.31127,-0.88627 -3.91283,0.40946 -8.73492,-0.75167 5.95148,4.31696 7.35977,14.74721 15.74136,19.66294 -3.85279,0.53327 0.61989,2.24877 -6.31855,1.46083 6.39157,5.78576 6.58057,16.17833 12.16372,19.49098 -2.45138,1.48662 -4.55991,1.97642 -10.28266,1.06372 17.43657,8.25308 0.35192,39.10033 15.06186,66.81871 -11.0057,-2.36318 -11.4118,4.79716 -22.44643,2.63375" style="color:#000000;fill:#ffffff;fill-opacity:1;fill-rule:evenodd;stroke:#000000;stroke-width:2.5;stroke-linecap:butt;stroke-linejoin:miter;stroke-miterlimit:4;stroke-opacity:1;stroke-dasharray:none;stroke-dashoffset:0;marker:none;visibility:visible;display:inline;overflow:visible;enable-background:accumulate" id="path5117" inkscape:connector-curvature="0"/>
    </g>
    <g id="g2625" style="fill:#ffffff;fill-opacity:1;stroke:#000000;stroke-width:2.5;stroke-miterlimit:4;stroke-opacity:1;stroke-dasharray:none">
      <g id="g6139" transform="translate(-121.34371,-150.00859)" style="fill:#ffffff;fill-opacity:1;stroke:#000000;stroke-width:2.5;stroke-miterlimit:4;stroke-opacity:1;stroke-dasharray:none">
        <path d="m 136.61671,458.42642 5.8124,6.04489 28.13198,-31.38692 -6.74238,-6.04489" style="color:#000000;fill:#ffffff;fill-opacity:1;fill-rule:evenodd;stroke:#000000;stroke-width:2.5;stroke-linecap:butt;stroke-linejoin:miter;stroke-miterlimit:4;stroke-opacity:1;stroke-dasharray:none;stroke-dashoffset:0;marker:none;visibility:visible;display:inline;overflow:visible;enable-background:accumulate" id="path5131" inkscape:connector-curvature="0"/>
        <path d="m 133.91753,431.83115 c 0.92998,6.74238 -0.0581,19.93651 2.78995,26.737 7.03299,-8.54421 19.82025,-20.80836 28.13197,-30.22444 -3.77806,-5.69614 -11.50853,-4.24304 -12.55476,-9.06733" style="color:#000000;fill:#ffffff;fill-opacity:1;fill-rule:evenodd;stroke:#000000;stroke-width:2.5;stroke-linecap:butt;stroke-linejoin:miter;stroke-miterlimit:4;stroke-opacity:1;stroke-dasharray:none;stroke-dashoffset:0;marker:none;visibility:visible;display:inline;overflow:visible;enable-background:accumulate" id="path5129" inkscape:connector-curvature="0"/>
      </g>
      <g id="g6151" transform="translate(-121.34371,-150.00859)" style="fill:#ffffff;fill-opacity:1;stroke:#000000;stroke-width:2.5;stroke-miterlimit:4;stroke-opacity:1;stroke-dasharray:none">
        <path d="m 430.34955,610.38785 0,7.43986 41.15174,-0.46499 0,-6.74238" style="color:#000000;fill:#ffffff;fill-opacity:1;fill-rule:evenodd;stroke:#000000;stroke-width:2.5;stroke-linecap:butt;stroke-linejoin:miter;stroke-miterlimit:4;stroke-opacity:1;stroke-dasharray:none;stroke-dashoffset:0;marker:none;visibility:visible;display:inline;overflow:visible;enable-background:accumulate" id="path5147" inkscape:connector-curvature="0"/>
        <path d="m 444.0668,590.16072 c -4.3593,5.05678 -9.4742,11.62479 -13.71725,20.22713 12.49664,-0.2325 30.34069,-0.0581 41.38424,0.23249 -1.51122,-7.38174 -1.39498,-9.06733 -1.85997,-12.08977" style="color:#000000;fill:#ffffff;fill-opacity:1;fill-rule:evenodd;stroke:#000000;stroke-width:2.5;stroke-linecap:butt;stroke-linejoin:miter;stroke-miterlimit:4;stroke-opacity:1;stroke-dasharray:none;stroke-dashoffset:0;marker:none;visibility:visible;display:inline;overflow:visible;enable-background:accumulate" id="path5145" inkscape:connector-curvature="0"/>
      </g>
    </g>
    <path id="path2184" style="color:#000000;fill:#ffffff;fill-opacity:1;fill-rule:evenodd;stroke:#000000;stroke-width:2.5;stroke-linecap:butt;stroke-linejoin:miter;stroke-miterlimit:4;stroke-opacity:1;stroke-dasharray:none;stroke-dashoffset:0;marker:none;visibility:visible;display:inline;overflow:visible;enable-background:accumulate" d="M 235.21892,171.62975 C 245.67216,89.6006 227.21399,36.15611 156.79044,25.48499 151.60143,21.43187 158.79897,18.14857 151.74949,12.02732 142.80915,5.90608 132.31063,7.43188 127.33194,1 c -2.55764,1.74478 -4.10797,2.62768 -3.06062,4.20836 3.88088,6.63176 12.09016,7.44886 16.8594,12.5861 4.66582,5.02586 1.81742,5.63329 0.24639,7.96289 -7.73088,0.23525 -19.29035,5.40576 -21.31415,7.76177 -13.90523,16.18782 -29.60232,34.03696 -42.46615,48.96998 -8.38571,9.73458 -2.46297,9.27752 -1.53031,16.45085 -1.68075,7.69602 0.335,9.95063 2.82176,14.15899 2.66098,3.68567 8.09746,2.28242 9.73868,-0.8101 1.64884,-3.10689 0.49054,-6.72824 2.43195,-7.95867 10.87096,-6.88981 18.57972,-12.66052 22.88282,-15.33725 -1.09794,10.04185 -2.80476,16.05649 -5.84465,20.48498 -2.43432,3.54632 -8.89309,5.0567 -10.01527,8.42033 -0.50964,1.52761 1.86982,3.84104 3.09836,3.96227 4.51721,0.44578 12.96007,-3.12082 14.8828,-4.34846 6.35016,-4.05446 6.00632,-8.40548 7.44321,-15.89405 7.36061,-4.70094 12.2425,-9.18187 12.2425,-9.18187 0,0 11.90259,1.19847 20.63917,-2.63764 6.07484,21.00682 -10.36502,39.1991 -17.9295,54.42824 -5.19848,1.03319 -10.41367,4.00083 -12.32841,6.48834 -9.89997,14.31748 -11.92928,19.23084 -27.27146,45.16236 -2.03347,5.52482 17.01465,50.79055 46.938,76.90015 79.01772,31.43309 90.02267,32.19129 161.48015,28.4255 4.02667,13.38766 2.98904,23.49801 10.33616,29.53714 25.36883,20.85249 43.75304,17.63235 57.39346,46.80898 2.33294,4.99012 -9.76566,25.94967 -21.04026,41.67977 -19.84208,10.76143 -24.55607,14.02381 -31.73833,21.24065 17.45834,0.81668 19.30849,5.21086 27.32989,14.02685 4.50131,-16.14462 17.34352,-8.65358 18.83605,-1.80345 4.05259,-8.19023 7.92158,-12.2268 7.61457,-19.4372 12.1733,-21.29075 32.14612,-46.14053 41.07862,-65.72579 2.09671,-4.59722 -1.67777,-6.9603 -5.49111,-13.78457 -11.81354,-2.66417 -22.13682,-10.50532 -22.56258,-16.07258 -1.15727,-15.13236 20.09224,-37.65614 22.52371,-45.88782 8.68299,-29.39602 -10.86578,-61.43145 -36.78981,-77.70993 -45.23352,-28.40352 -84.45259,1.82202 -139.54806,-42.44537 z" sodipodi:nodetypes="cccccscssccsscssssccccccccsscccccscsssc" inkscape:connector-curvature="0"/>
    <path id="path4140" style="color:#000000;fill:#ffffff;fill-opacity:1;fill-rule:evenodd;stroke:#000000;stroke-width:2.5;stroke-linecap:butt;stroke-linejoin:miter;stroke-miterlimit:4;stroke-opacity:1;stroke-dasharray:none;stroke-dashoffset:0;marker:none;visibility:visible;display:inline;overflow:visible;enable-background:accumulate" d="m 139.20802,247.96668 c 4.11564,-20.10333 -6.96493,-27.3057 -16.46256,-32.29196 -10.71874,-15.59986 -15.19621,-23.66493 -27.85972,-30.70901 -8.86446,-2.29526 -17.72892,-1.42465 -29.12608,1.26635 -18.99527,19.15356 -50.55136,62.26331 -53.18674,72.4986 -2.62493,10.19468 -1.26636,16.93745 -10e-6,23.74408 7.59811,-4.59052 12.98011,-7.12322 21.21139,-11.08057 0.63317,-16.30427 9.89336,-8.23128 11.71374,-4.74881 4.35308,-3.79905 4.35308,-6.25261 5.0654,-11.08058 0.71233,-4.82796 0,-2.29526 -1.58293,-6.64834 10.44739,-15.43365 19.30973,-32.36951 31.65877,-31.65877 11.00143,0.63317 12.84924,15.12887 17.41233,25.32702 3.78441,8.45785 23.65926,30.50622 30.07584,37.99053 4.58947,-0.068 8.54787,0.23744 13.61327,0 5.69858,-11.95119 12.90096,-16.22512 19.31186,-17.41233" inkscape:connector-curvature="0"/>
    <g id="g2610" style="fill:#ffffff;fill-opacity:1;stroke:#000000;stroke-width:2.5;stroke-miterlimit:4;stroke-opacity:1;stroke-dasharray:none">
      <g style="fill:#ffffff;fill-opacity:1;stroke:#000000;stroke-width:2.5;stroke-miterlimit:4;stroke-opacity:1;stroke-dasharray:none" id="g5091" transform="translate(-121.34371,-150.00859)">
        <g transform="translate(2,2)" id="g6155" style="fill:#ffffff;fill-opacity:1;stroke:#000000;stroke-width:2.5;stroke-miterlimit:4;stroke-opacity:1;stroke-dasharray:none">
          <path d="m 230.08659,198.51194 c 9.09671,8.50949 14.2719,-14.43244 23.67879,-3.18878 -5.7268,1.75034 -8.55878,10.41016 -14.57932,11.13832 -3.62426,-0.56859 -6.66732,-4.65728 -9.09947,-7.94954 z" style="color:#000000;fill:#ffffff;fill-opacity:1;fill-rule:evenodd;stroke:#000000;stroke-width:2.5;stroke-linecap:butt;stroke-linejoin:miter;stroke-miterlimit:4;stroke-opacity:1;stroke-dasharray:none;stroke-dashoffset:0;marker:none;visibility:visible;display:inline;overflow:visible;enable-background:accumulate" id="path6227" sodipodi:nodetypes="cccc" inkscape:connector-curvature="0"/>
          <path d="m 246.85831,199.97047 c 4e-5,1.71893 -1.96582,3.11513 -4.3998,3.12482 -2.43397,0.01 -4.422,-1.37076 -4.4494,-3.08959 -0.0274,-1.71882 1.91611,-3.13054 4.34977,-3.15955 2.43367,-0.029 4.44355,1.33557 4.49831,3.05407 l -4.42362,0.0703 4.42474,0 z" style="fill:#ffffff;fill-opacity:1;stroke:#000000;stroke-width:2.5;stroke-miterlimit:4;stroke-opacity:1;stroke-dasharray:none" id="path4120" inkscape:connector-curvature="0"/>
        </g>
      </g>
      <path d="m 81.51719,89.81104 c 8.43423,-4.17591 10.90681,5.93417 2.41764,6.81331" style="color:#000000;fill:#ffffff;fill-opacity:1;fill-rule:evenodd;stroke:#000000;stroke-width:2.5;stroke-linecap:butt;stroke-linejoin:miter;stroke-miterlimit:4;stroke-opacity:1;stroke-dasharray:none;stroke-dashoffset:0;marker:none;visibility:visible;display:inline;overflow:visible;enable-background:accumulate" id="path5153" inkscape:connector-curvature="0"/>
    </g>
    <path id="path5157" style="color:#000000;fill:#ffffff;fill-opacity:1;fill-rule:evenodd;stroke:#000000;stroke-width:2.5;stroke-linecap:butt;stroke-linejoin:miter;stroke-miterlimit:4;stroke-opacity:1;stroke-dasharray:none;stroke-dashoffset:0;marker:none;visibility:visible;display:inline;overflow:visible;enable-background:accumulate" d="m 373.79564,333.86027 c 3.96298,7.53743 7.92596,12.35517 17.71685,21.75753 17.25061,0.69935 9.71318,13.36535 6.52726,18.3385" inkscape:connector-curvature="0"/>
  </g>
  <g style="display:inline" id="g5590" transform="matrix(2.3720395,-0.54662313,0.54662313,2.3720395,-530.7062,-216.10176)">
    <path inkscape:connector-curvature="0" sodipodi:nodetypes="cccc" id="path5592" d="m 233.22943,176.40526 c 2.69797,0.52097 5.57915,-1.07653 4.59122,-3.29194 0,0 -28.84611,-24.2917 -44.92942,-37.04574 2.39808,4.82982 40.3382,40.33768 40.3382,40.33768 z" style="fill:#ffffff;fill-opacity:1;fill-rule:evenodd;stroke:#000000;stroke-width:0.99999976px;stroke-linecap:butt;stroke-linejoin:miter;stroke-opacity:1"/>
    <path inkscape:connector-curvature="0" sodipodi:nodetypes="cc" id="path5594" d="m 236.87912,172.44761 c 0.89809,0.76453 -1.54846,3.36487 -4.85139,2.65966" style="fill:none;stroke:#000000;stroke-width:0.99999976px;stroke-linecap:butt;stroke-linejoin:miter;stroke-opacity:1"/>
    <path inkscape:connector-curvature="0" style="fill:none;stroke:#000000;stroke-width:0.99999976px;stroke-linecap:butt;stroke-linejoin:miter;stroke-opacity:1" d="m 234.48282,170.33047 c 0.91241,0.78887 -1.53296,3.01392 -4.88934,2.28717" id="path5596" sodipodi:nodetypes="cc"/>
    <path inkscape:connector-curvature="0" sodipodi:nodetypes="cc" id="path5598" d="m 231.67599,167.9424 c 0.89809,0.76453 -1.37059,3.09467 -4.67352,2.38946" style="fill:none;stroke:#000000;stroke-width:0.99999976px;stroke-linecap:butt;stroke-linejoin:miter;stroke-opacity:1"/>
    <path inkscape:connector-curvature="0" style="fill:none;stroke:#000000;stroke-width:0.99999976px;stroke-linecap:butt;stroke-linejoin:miter;stroke-opacity:1" d="m 229.20286,165.89955 c 0.89809,0.76452 -1.12514,2.9789 -4.42807,2.27369" id="path5600" sodipodi:nodetypes="cc"/>
    <path inkscape:connector-curvature="0" sodipodi:nodetypes="cc" id="path5602" d="m 226.90566,164.06305 c 0.89809,0.76453 -1.48111,2.62045 -4.78404,1.91524" style="fill:none;stroke:#000000;stroke-width:0.99999976px;stroke-linecap:butt;stroke-linejoin:miter;stroke-opacity:1"/>
    <path inkscape:connector-curvature="0" style="fill:none;stroke:#000000;stroke-width:0.99999976px;stroke-linecap:butt;stroke-linejoin:miter;stroke-opacity:1" d="m 223.83452,161.50416 c 1.28076,1.54585 -1.0392,2.63464 -3.80336,2.14208" id="path5604" sodipodi:nodetypes="cc"/>
    <path inkscape:connector-curvature="0" sodipodi:nodetypes="cc" id="path5606" d="m 221.4496,159.44658 c 1.13647,1.59976 -1.08671,2.51419 -3.85087,2.02162" style="fill:none;stroke:#000000;stroke-width:0.99999976px;stroke-linecap:butt;stroke-linejoin:miter;stroke-opacity:1"/>
    <path inkscape:connector-curvature="0" style="fill:none;stroke:#000000;stroke-width:0.99999976px;stroke-linecap:butt;stroke-linejoin:miter;stroke-opacity:1" d="m 219.17776,157.44882 c 0.47938,1.55607 -1.31578,2.13001 -4.07995,1.63745" id="path5608" sodipodi:nodetypes="cc"/>
    <path inkscape:connector-curvature="0" sodipodi:nodetypes="cc" id="path5610" d="m 216.44002,155.07956 c 0.51333,1.84011 -1.11264,2.09421 -3.8768,1.60165" style="fill:none;stroke:#000000;stroke-width:0.99999976px;stroke-linecap:butt;stroke-linejoin:miter;stroke-opacity:1"/>
    <path inkscape:connector-curvature="0" style="fill:none;stroke:#000000;stroke-width:0.99999976px;stroke-linecap:butt;stroke-linejoin:miter;stroke-opacity:1" d="m 213.54051,152.70659 c 0.51332,1.84011 -0.90671,1.93708 -3.11023,1.70015" id="path5612" sodipodi:nodetypes="cc"/>
    <path inkscape:connector-curvature="0" sodipodi:nodetypes="cc" id="path5614" d="m 210.99943,150.58462 c 0.51332,1.84011 -0.70357,1.90127 -2.90709,1.66434" style="fill:none;stroke:#000000;stroke-width:0.99999976px;stroke-linecap:butt;stroke-linejoin:miter;stroke-opacity:1"/>
    <path inkscape:connector-curvature="0" style="fill:none;stroke:#000000;stroke-width:0.99999976px;stroke-linecap:butt;stroke-linejoin:miter;stroke-opacity:1" d="m 208.49507,148.62536 c 0.51332,1.84011 -0.97275,1.28812 -3.17627,1.0512" id="path5616" sodipodi:nodetypes="cc"/>
    <path inkscape:connector-curvature="0" sodipodi:nodetypes="cc" id="path5618" d="m 206.15527,146.54847 c 0.15861,1.42733 -1.96622,0.49653 -3.48776,0.51803" style="fill:none;stroke:#000000;stroke-width:0.99999976px;stroke-linecap:butt;stroke-linejoin:miter;stroke-opacity:1"/>
    <path inkscape:connector-curvature="0" style="fill:none;stroke:#000000;stroke-width:0.99999976px;stroke-linecap:butt;stroke-linejoin:miter;stroke-opacity:1" d="m 204.24339,145.07399 c -1.04595,0.21767 -2.81022,-0.43615 -5.32014,-1.92747" id="path5620" sodipodi:nodetypes="cc"/>
  </g>
</svg>